<svg width="750" height="1334" viewBox="0 0 750 1334" fill="none" xmlns="http://www.w3.org/2000/svg">
<rect width="750" height="1334" fill="#FAFAFA"/>
<rect width="750" height="120" fill="white"/>
<rect x="40" y="40" width="80" height="40" rx="10" fill="#6366F1"/>
<rect x="40" y="160" width="300" height="40" rx="8" fill="#111827"/>
<rect x="40" y="220" width="200" height="20" rx="4" fill="#9CA3AF"/>
<rect x="40" y="280" width="670" height="200" rx="20" fill="white" stroke="#E5E7EB" stroke-width="2"/>
<rect x="80" y="320" width="50" height="50" rx="10" fill="#EEF2FF"/>
<rect x="150" y="330" width="200" height="30" rx="6" fill="#111827"/>
<rect x="40" y="500" width="670" height="200" rx="20" fill="white" stroke="#E5E7EB" stroke-width="2"/>
<rect x="80" y="540" width="50" height="50" rx="10" fill="#EEF2FF"/>
<rect x="150" y="550" width="200" height="30" rx="6" fill="#111827"/>
<rect x="40" y="720" width="670" height="200" rx="20" fill="white" stroke="#E5E7EB" stroke-width="2"/>
<rect x="80" y="760" width="50" height="50" rx="10" fill="#EEF2FF"/>
<rect x="150" y="770" width="200" height="30" rx="6" fill="#111827"/>
<circle cx="650" cy="1200" r="40" fill="#6366F1"/>
</svg>