<svg width="1280" height="800" viewBox="0 0 1280 800" fill="none" xmlns="http://www.w3.org/2000/svg">
<rect width="1280" height="800" fill="#FAFAFA"/>
<rect width="1280" height="60" fill="white" stroke="#E5E7EB"/>
<rect x="40" y="15" width="40" height="30" rx="6" fill="#6366F1"/>
<rect x="100" y="15" width="100" height="30" rx="6" fill="#E5E7EB"/>
<rect x="40" y="100" width="300" height="660" rx="16" fill="white" stroke="#E5E7EB"/>
<rect x="70" y="130" width="150" height="30" rx="6" fill="#111827"/>
<rect x="70" y="190" width="240" height="50" rx="10" fill="#EEF2FF"/>
<rect x="70" y="260" width="240" height="50" rx="10" fill="white" stroke="#F3F4F6"/>
<rect x="70" y="330" width="240" height="50" rx="10" fill="white" stroke="#F3F4F6"/>
<rect x="380" y="100" width="860" height="660" rx="16" fill="white" stroke="#E5E7EB"/>
<rect x="420" y="140" width="780" height="120" rx="12" fill="#F9FAFB"/>
<rect x="420" y="280" width="780" height="120" rx="12" fill="#F9FAFB"/>
<rect x="420" y="420" width="780" height="120" rx="12" fill="#F9FAFB"/>
</svg>